<?xml version="1.0" encoding="utf-8"?>
<!-- Generator: Adobe Illustrator 24.3.0, SVG Export Plug-In . SVG Version: 6.00 Build 0)  -->
<svg version="1.1" id="Layer_1" xmlns="http://www.w3.org/2000/svg" xmlns:xlink="http://www.w3.org/1999/xlink" x="0px" y="0px"
	 viewBox="0 0 300 300" enable-background="new 0 0 300 300" xml:space="preserve">
<g>
	<g>
		<g>
			<path fill="#AA6148" d="M193.142,164.402c1.73-3.251,2.767-7.281,2.767-11.663c0.003-10.739-6.154-19.441-13.745-19.438
				c-7.586-0.003-13.742,8.699-13.742,19.438c0,2.799,0.425,5.454,1.178,7.857L193.142,164.402z"/>
		</g>
		<g>
			<path fill="#AA6148" d="M222.463,148.921c-7.592-7.594-18.097-9.395-23.462-4.025c-4.748,4.742-3.868,13.503,1.65,20.723
				l27.552,4.452C231.288,164.358,229.077,155.535,222.463,148.921z"/>
		</g>
		<g>
			<path fill="#AA6148" d="M251.996,173.921c1.692-1.65,3.239-3.626,4.526-5.891c5.312-9.333,4.261-19.94-2.341-23.69
				c-6.593-3.75-16.246,0.771-21.552,10.107c-3.071,5.398-3.951,11.188-2.923,15.868L251.996,173.921z"/>
		</g>
		<g>
			<rect x="132.859" y="176.833" fill="#F4F4F4" width="18.142" height="13.261"/>
		</g>
		<g>
			<path fill="#FFDA88" d="M132.859,173.231l-87.728-5.847c-8.876,0-16.078,7.199-16.078,16.075c0,8.885,7.202,16.087,16.078,16.087
				l87.728-5.85V173.231z"/>
		</g>
		<g>
			<path fill="#FFE2A9" d="M40.959,183.459c0-7.521,5.194-13.789,12.174-15.54l-8.002-0.535c-8.876,0-16.078,7.199-16.078,16.075
				c0,8.885,7.202,16.087,16.078,16.087l8.002-0.535C46.153,197.257,40.959,190.988,40.959,183.459z"/>
		</g>
		<g>
			<path fill="#F4F4F4" d="M270.941,189.946c0,9.218-7.473,16.694-16.695,16.694h-86.55c-9.221,0-16.695-7.326-16.695-16.544
				v-13.261c0-9.218,7.473-16.544,16.695-16.544l103.245,16.695V189.946z"/>
		</g>
		<g>
			<path fill="#F9F9F9" d="M167.158,190.094v-13.261c0-6.744,4.007-12.461,9.767-15.053l-9.23-1.491
				c-9.221,0-16.695,7.326-16.695,16.544v13.261c0,9.218,7.473,16.544,16.695,16.544h16.158
				C174.632,206.638,167.158,199.312,167.158,190.094z"/>
		</g>
		<g>
			<path fill="#BC715C" d="M182.347,162.533l8.017,1.332c0.679-3.549-0.219-8.082-4.769-13.89c-4.048-5.173-1.716-8.238-0.514-9.322
				c1.692-1.462,1.937-4.054,0.532-5.82c-1.414-1.786-3.971-2.046-5.702-0.587c-2.858,2.4-8.542,10.837-0.635,20.941
				C182.084,158.771,182.828,160.829,182.347,162.533z"/>
		</g>
		<g>
			<path fill="#BC715C" d="M212.474,162.976c7.237,0.756,8.285,2.48,8.38,5.965l8.69,1.352c0.062-5.274-0.543-13.996-16.128-15.623
				c-6.883-0.721-7.376-4.595-7.267-6.245c0.206-2.273-1.521-4.29-3.889-4.518c-2.389-0.266-4.518,1.438-4.754,3.738
				C197.111,151.428,199.024,161.564,212.474,162.976z"/>
		</g>
		<g>
			<path fill="#BC715C" d="M236.642,171.592l11.448,1.745c1.547-2.767,2.262-6.715,1.273-12.472
				c-1.125-6.564,2.702-8.052,4.414-8.383c2.377-0.413,3.966-2.551,3.561-4.801c-0.411-2.277-2.714-3.815-5.102-3.416
				c-3.974,0.635-13.807,5.096-11.61,17.932C241.827,169.206,240.288,170.573,236.642,171.592z"/>
		</g>
		<g>
			<path fill="#FFDA88" d="M177.236,103.121c0,2.784-2.256,5.04-5.037,5.04l0,0c-2.784,0-5.04-2.256-5.04-5.04v-9.26
				c0-2.781,2.256-5.037,5.04-5.037l0,0c2.781,0,5.037,2.256,5.037,5.037V103.121z"/>
		</g>
		<g>
			<path fill="#FFDA88" d="M156.227,114.619c2.784,0,5.04,2.256,5.04,5.037l0,0c0,2.784-2.256,5.04-5.04,5.04h-9.26
				c-2.782,0-5.037-2.256-5.037-5.04l0,0c0-2.781,2.256-5.037,5.037-5.037H156.227z"/>
		</g>
		<g>
			<path fill="#FFDA88" d="M236.642,103.121c0,2.784,2.256,5.04,5.038,5.04l0,0c2.784,0,5.04-2.256,5.04-5.04v-9.26
				c0-2.781-2.256-5.037-5.04-5.037l0,0c-2.782,0-5.038,2.256-5.038,5.037V103.121z"/>
		</g>
		<g>
			<path fill="#FFDA88" d="M257.65,114.619c-2.784,0-5.04,2.256-5.04,5.037l0,0c0,2.784,2.256,5.04,5.04,5.04h9.26
				c2.781,0,5.037-2.256,5.037-5.04l0,0c0-2.781-2.256-5.037-5.037-5.037H257.65z"/>
		</g>
	</g>
	<g>
		<g>
			<g>
				<path fill="#161616" d="M193.145,168.937c-0.239,0-0.481-0.018-0.723-0.059l-23.542-3.806c-1.695-0.275-3.092-1.482-3.605-3.121
					c-0.918-2.935-1.385-6.035-1.385-9.213c0-6.124,1.724-11.935,4.86-16.367c3.416-4.834,8.306-7.606,13.414-7.606
					c0,0,0.003,0,0.006,0h0.003c5.108,0,9.998,2.773,13.417,7.606c3.133,4.432,4.86,10.246,4.857,16.367
					c0,4.97-1.14,9.741-3.298,13.795C196.352,168.028,194.802,168.937,193.145,168.937z M173.291,156.598l17.079,2.761
					c0.661-2.049,1.007-4.293,1.007-6.62c0-4.202-1.163-8.259-3.192-11.129c-0.998-1.408-3.103-3.774-6.015-3.774l0,0
					c-0.003,0-0.003,0-0.003,0c-2.911,0-5.017,2.365-6.012,3.774c-2.031,2.87-3.195,6.927-3.195,11.129
					C172.96,154.053,173.07,155.343,173.291,156.598z"/>
			</g>
			<g>
				<path fill="#161616" d="M228.206,174.607c-0.239,0-0.481-0.018-0.723-0.059l-27.552-4.453c-1.146-0.183-2.176-0.8-2.879-1.721
					c-7.019-9.18-7.544-20.403-1.252-26.687c3.605-3.611,9.021-5.111,14.867-4.11c5.347,0.918,10.677,3.806,15.006,8.138l0,0
					c7.969,7.966,10.65,18.871,6.526,26.512C231.395,173.709,229.854,174.607,228.206,174.607z M203.258,161.446l21.75,3.514
					c0.254-3.602-1.426-8.507-5.749-12.833l0,0c-2.97-2.97-6.661-5.017-10.125-5.61c-1.71-0.292-4.866-0.472-6.921,1.586
					C199.482,150.828,199.981,156.365,203.258,161.446z"/>
			</g>
			<g>
				<path fill="#161616" d="M251.999,178.457c-0.239,0-0.481-0.018-0.724-0.059l-22.29-3.605c-1.837-0.295-3.307-1.686-3.706-3.505
					c-1.32-6-0.074-12.957,3.41-19.083c3.024-5.321,7.397-9.52,12.31-11.823c5.359-2.516,10.987-2.513,15.425,0.018
					c4.444,2.522,7.329,7.352,7.91,13.246c0.534,5.4-0.839,11.306-3.868,16.63c-1.459,2.563-3.242,4.884-5.3,6.892
					C254.311,178.002,253.174,178.457,251.999,178.457z M233.828,166.389l16.5,2.666c0.836-1.004,1.592-2.099,2.256-3.266
					c2.079-3.652,3.071-7.754,2.725-11.25c-0.168-1.719-0.833-4.816-3.366-6.254c-2.525-1.438-5.531-0.419-7.092,0.307
					c-3.183,1.494-6.201,4.444-8.277,8.096C234.773,159.858,233.825,163.259,233.828,166.389z"/>
			</g>
			<g>
				<path fill="#161616" d="M182.35,162.533l8.017,1.332c0.679-3.549-0.219-8.082-4.769-13.89c-4.048-5.173-1.716-8.238-0.514-9.322
					c1.692-1.462,1.937-4.054,0.531-5.82c-1.414-1.786-3.971-2.046-5.702-0.587c-2.858,2.4-8.542,10.837-0.635,20.941
					C182.087,158.771,182.831,160.829,182.35,162.533z"/>
			</g>
			<g>
				<path fill="#161616" d="M212.477,162.976c7.237,0.756,8.285,2.48,8.38,5.965l8.69,1.352c0.062-5.274-0.543-13.996-16.128-15.623
					c-6.883-0.721-7.376-4.595-7.267-6.245c0.206-2.273-1.521-4.29-3.889-4.518c-2.389-0.266-4.517,1.438-4.754,3.738
					C197.114,151.428,199.027,161.564,212.477,162.976z"/>
			</g>
			<g>
				<path fill="#161616" d="M236.645,171.592l11.448,1.745c1.547-2.767,2.262-6.715,1.273-12.472
					c-1.125-6.564,2.702-8.052,4.414-8.383c2.377-0.413,3.965-2.551,3.561-4.801c-0.41-2.277-2.713-3.815-5.102-3.416
					c-3.974,0.635-13.807,5.096-11.61,17.932C241.83,169.206,240.291,170.573,236.645,171.592z"/>
			</g>
		</g>
		<g>
			<path fill="#161616" d="M151.004,194.629h-18.142c-2.504,0-4.535-2.032-4.535-4.535v-13.261c0-2.504,2.031-4.535,4.535-4.535
				h18.142c2.504,0,4.535,2.031,4.535,4.535v13.261C155.539,192.598,153.508,194.629,151.004,194.629z M137.398,185.558h9.071v-4.19
				h-9.071V185.558z"/>
		</g>
		<g>
			<path fill="#161616" d="M45.417,204.072c-11.66,0-20.896-9.248-20.896-20.613c0-11.365,9.248-20.61,20.613-20.61l15.203,1.001
				c2.498,0.168,4.391,2.33,4.225,4.828c-0.168,2.501-2.386,4.352-4.828,4.225l-14.902-0.992
				c-6.062,0.009-11.241,5.185-11.241,11.548c0,6.369,5.179,11.551,11.542,11.551l83.193-5.557v-11.979l-47.669-3.174
				c-2.501-0.168-4.391-2.33-4.225-4.828c0.165-2.504,2.353-4.376,4.828-4.225l51.903,3.458c2.383,0.16,4.234,2.138,4.234,4.527
				v20.465c0,2.389-1.851,4.367-4.234,4.527l-87.728,5.849C45.429,204.072,45.423,204.072,45.417,204.072z"/>
		</g>
		<g>
			<path fill="#161616" d="M254.249,211.176h-14.211c-2.504,0-4.535-2.031-4.535-4.535c0-2.504,2.032-4.535,4.535-4.535h14.211
				c6.706,0,12.159-5.454,12.159-12.159v-9.097l-99.046-16.016c-6.549,0.174-11.823,5.492-11.823,12.003v13.261
				c0,6.623,5.454,12.009,12.159,12.009h51.416c2.504,0,4.535,2.031,4.535,4.535c0,2.504-2.031,4.535-4.535,4.535h-51.416
				c-11.708,0-21.23-9.458-21.23-21.079v-13.261c0-11.622,9.523-21.08,21.23-21.08c0.242,0,0.484,0.021,0.723,0.059l103.245,16.695
				c2.197,0.354,3.812,2.25,3.812,4.476v12.96C275.479,201.654,265.956,211.176,254.249,211.176z"/>
		</g>
		<g>
			<path fill="#161616" d="M177.239,103.121c0,2.784-2.256,5.04-5.038,5.04l0,0c-2.784,0-5.04-2.256-5.04-5.04v-9.26
				c0-2.781,2.256-5.037,5.04-5.037l0,0c2.782,0,5.038,2.256,5.038,5.037V103.121z"/>
		</g>
		<g>
			<path fill="#161616" d="M156.23,114.619c2.785,0,5.04,2.256,5.04,5.037l0,0c0,2.784-2.256,5.04-5.04,5.04h-9.26
				c-2.781,0-5.037-2.256-5.037-5.04l0,0c0-2.781,2.256-5.037,5.037-5.037H156.23z"/>
		</g>
		<g>
			<path fill="#161616" d="M236.645,103.121c0,2.784,2.256,5.04,5.037,5.04l0,0c2.784,0,5.04-2.256,5.04-5.04v-9.26
				c0-2.781-2.256-5.037-5.04-5.037l0,0c-2.781,0-5.037,2.256-5.037,5.037V103.121z"/>
		</g>
		<g>
			<path fill="#161616" d="M257.654,114.619c-2.784,0-5.04,2.256-5.04,5.037l0,0c0,2.784,2.256,5.04,5.04,5.04h9.26
				c2.781,0,5.037-2.256,5.037-5.04l0,0c0-2.781-2.256-5.037-5.037-5.037H257.654z"/>
		</g>
	</g>
</g>
</svg>
