<svg xmlns="http://www.w3.org/2000/svg" viewBox="0 0 64 64"><g id="_25-location" data-name="25-location"><rect x="14" y="6" width="36" height="62" rx="2" transform="translate(-5 69) rotate(-90)" style="fill:#fbfbfb"/><polygon points="4 42 4 32 2 30.667 1 30 1 44 2 43.333 4 42" style="fill:#393d48"/><polygon points="2 43.333 2 43.333 4 42 2 43.333" style="fill:#393d48"/><polygon points="4 32 2 30.667 2 30.667 4 32" style="fill:#393d48"/><polygon points="2 30.667 1 30 2 30.667 2 30.667" style="fill:#393d48"/><polygon points="2 43.333 1 44 2 43.333 2 43.333" style="fill:#393d48"/><path d="M41,49H1v4a2.006,2.006,0,0,0,2,2H61a2.006,2.006,0,0,0,2-2V21a2.006,2.006,0,0,0-2-2H57V33A16,16,0,0,1,41,49Z" style="fill:#d6e0eb"/><path d="M1,21v9l1,.667V21a1,1,0,0,1,1-1H61a1,1,0,0,1,1,1V53a1,1,0,0,1-1,1H3a1,1,0,0,1-1-1V43.333L1,44v9a2.006,2.006,0,0,0,2,2H61a2.006,2.006,0,0,0,2-2V21a2.006,2.006,0,0,0-2-2H3A2.006,2.006,0,0,0,1,21Z" style="fill:#393d48"/><polygon points="46 27 46 39 39 32 44 27 46 27" style="fill:#a8b7d4"/><polygon points="46 47 24 47 35 36 46 47" style="fill:#4989f4"/><polygon points="27 38 18 47 18 29 27 38" style="fill:#01a84e"/><polygon points="38 27 30 35 22 27 38 27" style="fill:#01a84e"/><polygon points="46 39 46 47 35 36 24 47 18 47 27 38 18 29 18 27 22 27 30 35 38 27 44 27 39 32 46 39" style="fill:#fbcb00"/><circle cx="30" cy="19" r="4" style="fill:#e63b47"/><path d="M29.5,22.95V30h1V22.95A4.13,4.13,0,0,1,30,23,4.13,4.13,0,0,1,29.5,22.95Z" style="fill:#393d48"/><path d="M54.24,17c-1.41,1.68-2.84,3.26-2.84,5.64a2.4,2.4,0,0,1-4.8,0c0-2.38-1.43-3.96-2.84-5.64a11.252,11.252,0,0,1-2.44-4A6.867,6.867,0,0,1,41,10.86a8,8,0,0,1,16,0A6.867,6.867,0,0,1,56.68,13,11.252,11.252,0,0,1,54.24,17ZM52,11a3,3,0,1,0-3,3A3,3,0,0,0,52,11Z" style="fill:#e63b47"/><circle cx="49" cy="11" r="3" style="fill:#96272e"/><path d="M49,7a4,4,0,1,0,4,4A4,4,0,0,0,49,7Zm0,7a3,3,0,1,1,3-3A3,3,0,0,1,49,14Z" style="fill:#b32e37"/><path d="M45.346,19H41.76c.281.335.56.666.831,1h3.344A8.616,8.616,0,0,0,45.346,19Z" style="fill:#22252b"/><path d="M49,25a2.38,2.38,0,0,1-2.4-2.36A5.684,5.684,0,0,0,45.935,20H42.591A7.194,7.194,0,0,1,44.6,24.64a2.4,2.4,0,0,0,4.767.324A2.467,2.467,0,0,1,49,25Z" style="fill:#d6e0eb"/><path d="M30,12.5a.5.5,0,0,1-.5-.5V6a.5.5,0,0,1,1,0v6A.5.5,0,0,1,30,12.5Z" style="fill:#fbcb00"/><path d="M33,13.5a.5.5,0,0,1-.354-.854l4-4a.5.5,0,0,1,.708.708l-4,4A.5.5,0,0,1,33,13.5Z" style="fill:#fbcb00"/><path d="M27,13.5a.5.5,0,0,1-.354-.146l-4-4a.5.5,0,0,1,.708-.708l4,4A.5.5,0,0,1,27,13.5Z" style="fill:#fbcb00"/></g></svg>