<?xml version="1.0" encoding="utf-8"?>
<!-- Generator: Adobe Illustrator 22.0.1, SVG Export Plug-In . SVG Version: 6.00 Build 0)  -->
<svg version="1.1" xmlns="http://www.w3.org/2000/svg" xmlns:xlink="http://www.w3.org/1999/xlink" x="0px" y="0px"
	 viewBox="0 0 512 512" style="enable-background:new 0 0 512 512;" xml:space="preserve">
<style type="text/css">
	.st0{fill:#71BCFF;}
	.st1{fill:#E49696;}
	.st2{fill:#EFC971;}
	.st3{fill:#77D284;}
	.st4{fill:#7F78BB;}
	.st5{fill:#518FF4;}
	.st6{fill:#EAA9B9;}
	.st7{fill:#F5DE92;}
	.st8{fill:#96EBE4;}
	.st9{fill:#E6AFC1;}
	.st10{fill:#5596C6;}
	.st11{fill:#74B1F6;}
	.st12{fill:#F5E5BD;}
	.st13{fill:none;stroke:#5E8783;stroke-width:8;stroke-linecap:round;stroke-miterlimit:10;}
	.st14{fill:#679795;}
	.st15{fill:#74AAAA;}
	.st16{fill:#7FBDBF;}
	.st17{fill:#D3F8F5;}
	.st18{fill:#7BB5B2;}
	.st19{fill:#B7F1F1;}
	.st20{fill:#A8DBD9;}
	.st21{fill:none;stroke:#748BA4;stroke-width:8;stroke-linecap:round;stroke-miterlimit:10;}
	.st22{fill:#748BA4;}
	.st23{fill:#82A0C8;}
	.st24{fill:#7C96B6;}
	.st25{fill:#8DAADE;}
	.st26{fill:#A0BDE5;}
	.st27{fill:none;stroke:#99536E;stroke-width:8;stroke-linecap:round;stroke-miterlimit:10;}
	.st28{fill:#99536E;}
	.st29{fill:#A35B7B;}
	.st30{fill:#E393AC;}
	.st31{fill:#E06E8A;}
	.st32{fill:#B45B77;}
	.st33{fill:#EEC8D7;}
	.st34{fill:#E8B9B9;}
	.st35{fill:#DA4545;}
	.st36{fill:#A63F3F;}
	.st37{fill:#DB5757;}
	.st38{fill:#ECF6FF;}
	.st39{fill:#DB50B1;}
	.st40{fill:#B24798;}
	.st41{fill:#E093D2;}
	.st42{fill:#A3CCF8;}
	.st43{fill:#CBE7FA;}
	.st44{fill:#AD3C3C;}
	.st45{fill:#DD88A0;}
	.st46{fill:#C47E94;}
	.st47{fill:#7673AB;}
	.st48{fill:#D6B168;}
	.st49{fill:#75ACAC;}
	.st50{fill:#FFFFFF;}
	.st51{fill:#E3B6C5;}
	.st52{fill:#DE6F6F;}
	.st53{fill:none;}
	.st54{fill:#90BFEA;}
	.st55{fill:#DB6E6E;}
	.st56{fill:#B13E3E;}
	.st57{fill:#C66666;}
	.st58{fill:#CF98A8;}
	.st59{fill:#F1D4DD;}
	.st60{fill:#B8899A;}
	.st61{fill:#7370AA;}
	.st62{fill:#8A87CE;}
	.st63{fill:#DA6464;}
	.st64{fill:#589960;}
	.st65{fill:#67B575;}
	.st66{fill:#C78321;}
	.st67{fill:#D7C431;}
	.st68{fill:#E59B25;}
	.st69{fill:#F6E637;}
	.st70{fill:#D3AE68;}
	.st71{fill:#1C314E;}
	.st72{fill:#FFFDFC;}
	.st73{fill:#DC8282;}
	.st74{fill:#DBDBDB;}
	.st75{fill:#CC6785;}
	.st76{fill:#D29FAE;}
	.st77{fill:#C4C4C4;}
	.st78{fill:#B13D3D;}
	.st79{fill:#9D3A3A;}
	.st80{fill:#F3DDB1;}
	.st81{fill:#D6B269;}
	.st82{fill:#C6819A;}
	.st83{fill:#B77C94;}
	.st84{fill:#DACFB5;}
	.st85{fill:#E9DCBC;}
	.st86{fill:#7471AB;}
	.st87{fill:#DE9BBA;}
	.st88{fill:#D189A6;}
	.st89{fill:#C2E1FD;}
	.st90{fill:#BC6383;}
	.st91{fill:#9B99D9;}
	.st92{fill:#F4E2B1;}
	.st93{fill:#B96281;}
	.st94{fill:#B08979;}
	.st95{fill:#D9A2B2;}
	.st96{fill:#F0D0D9;}
	.st97{fill:#DCBFC8;}
	.st98{fill:#708761;}
	.st99{fill:#779366;}
	.st100{fill:#9FBF8B;}
	.st101{fill:#A37F72;}
	.st102{fill:#D59EAE;}
	.st103{fill:#BC6381;}
	.st104{fill:#716EA8;}
	.st105{fill:#8481B6;}
	.st106{fill:#918BC6;}
	.st107{fill:#76AFAF;}
	.st108{fill:#BEDBD8;}
	.st109{fill:#EAB9C9;}
	.st110{fill:#A03B3B;}
	.st111{fill:#893535;}
	.st112{fill:#EFCED8;}
	.st113{fill:#F7EB83;}
	.st114{fill:#F1D7D7;}
	.st115{fill:#A35773;}
	.st116{fill:#DCC832;}
	.st117{fill:#BD8F9E;}
	.st118{fill:#6F6DA6;}
	.st119{fill:#D7A0B0;}
	.st120{fill:#8C89CC;}
	.st121{fill:none;stroke:#FFFFFF;stroke-width:8;stroke-linecap:round;stroke-miterlimit:10;}
	.st122{fill:#B53C3C;}
	.st123{fill:#C5E3DF;}
	.st124{fill:#956C42;}
	.st125{fill:#BD8E4D;}
	.st126{fill:#A97C47;}
	.st127{fill:#F5DEAE;}
	.st128{fill:#EDC495;}
	.st129{fill:#6F6DA4;}
	.st130{fill:#704A42;}
	.st131{fill:#A57A46;}
	.st132{fill:#C4DEF9;}
	.st133{fill:#B4CDE2;}
	.st134{fill:#8F8CD2;}
	.st135{fill:#A6BDCB;}
	.st136{fill:#9EB3BE;}
	.st137{fill:#9BAEB9;}
	.st138{fill:#71A5A5;}
	.st139{fill:none;stroke:#31315D;stroke-width:8;stroke-miterlimit:10;}
	.st140{fill:#C1F6F6;}
	.st141{fill:#C66482;}
	.st142{fill:#ABD6D4;}
	.st143{fill:#A5597B;}
	.st144{fill:#ECCBD5;}
	.st145{fill:#3E3A73;}
	.st146{fill:#453D80;}
	.st147{fill:#31315D;}
	.st148{fill:#D3BEC5;}
	.st149{fill:#7370A9;}
	.st150{fill:#A0526B;}
	.st151{fill:#D3AA5F;}
	.st152{fill:#F1D69F;}
	.st153{fill:#CC9180;}
	.st154{fill:#E4A38D;}
	.st155{fill:#E0A693;}
	.st156{fill:#EDBCA8;}
	.st157{fill:#E0A745;}
	.st158{fill:#3C3970;}
	.st159{fill:#4E4991;}
	.st160{fill:#B3ADFB;}
	.st161{fill:#B9863F;}
	.st162{fill:#CD9642;}
	.st163{fill:#BA893F;}
	.st164{fill:#A97C3D;}
	.st165{fill:#182A3F;}
	.st166{fill:none;stroke:#805D31;stroke-width:12;stroke-linecap:round;stroke-miterlimit:10;}
	.st167{fill:#EAC382;}
	.st168{fill:#467ABC;}
	.st169{fill:#D19943;}
	.st170{fill:#C26280;}
	.st171{fill:#CD97A7;}
	.st172{fill:#DEDCDC;}
	.st173{fill:#A53636;}
	.st174{fill:#D6D6D6;}
	.st175{fill:#A67B47;}
	.st176{fill:#A0546F;}
	.st177{fill:#B8D6D3;}
	.st178{fill:#A19EF2;}
	.st179{fill:none;stroke:#453D80;stroke-width:8;stroke-linecap:round;stroke-miterlimit:10;}
	.st180{fill:#E08DA7;}
	.st181{fill:#DA6A19;}
	.st182{fill:#A7F6F6;}
	.st183{fill:#BE6480;}
	.st184{fill:#C2809A;}
	.st185{fill:#C06581;}
	.st186{fill:#A8607D;}
	.st187{fill:#618C88;}
	.st188{fill:#676797;}
	.st189{fill:#D2FFFC;}
	.st190{fill:#3C3870;}
	.st191{fill:#BFE3E0;}
	.st192{fill:#DEC888;}
	.st193{fill:#9A9AE4;}
	.st194{fill:#689795;}
	.st195{fill:#A1E8E8;}
	.st196{fill:#C3A062;}
	.st197{fill:#C5A162;}
	.st198{fill:#EDC771;}
	.st199{fill:#DBC586;}
	.st200{fill:#D1D1D1;}
	.st201{fill:#AF8F5B;}
	.st202{fill:#F6EAC7;}
	.st203{fill:#7F78B9;}
	.st204{fill:#E9A7B7;}
	.st205{fill:#8A87CA;}
	.st206{fill:#ECC6D5;}
	.st207{fill:#D1F6F3;}
	.st208{fill:#D69EAC;}
	.st209{fill:#AC8494;}
	.st210{fill:#BB8D9C;}
	.st211{fill:#7F7FBA;}
	.st212{fill:#C3E3DF;}
	.st213{fill:none;stroke:#5E8581;stroke-width:8;stroke-linecap:round;stroke-miterlimit:10;}
	.st214{fill:#669593;}
	.st215{fill:#74A8A8;}
	.st216{fill:#7EBBBC;}
	.st217{fill:#7AB3B0;}
	.st218{fill:#B5EFEF;}
	.st219{fill:#A6D9D7;}
	.st220{fill:#BD8F9F;}
	.st221{fill:#D29CAC;}
	.st222{fill:none;stroke:#98536E;stroke-width:8;stroke-linecap:round;stroke-miterlimit:10;}
	.st223{fill:#993737;}
	.st224{fill:#AC3939;}
	.st225{fill:#C3E1DD;}
	.st226{fill:#E5CE8C;}
	.st227{fill:#BF9869;}
	.st228{fill:#D3A971;}
	.st229{fill:#FBF4DD;}
	.st230{fill:#A35974;}
	.st231{fill:#73AAAA;}
	.st232{fill:#A55874;}
	.st233{fill:#E8BAAD;}
	.st234{fill:#DA9B8A;}
	.st235{fill:#D9B46B;}
	.st236{fill:#A36C56;}
	.st237{fill:#936252;}
	.st238{fill:#AB705D;}
	.st239{fill:#8A5C4D;}
	.st240{fill:#805649;}
	.st241{fill:#D3A29A;}
	.st242{fill:#AB5977;}
	.st243{fill:#B53F6A;}
	.st244{fill:#81574B;}
	.st245{fill:#F0D2DC;}
	.st246{fill:#93D4CF;}
	.st247{fill:#B6FBFB;}
	.st248{fill:#E0B96C;}
	.st249{fill:#A83A3A;}
	.st250{fill:#793131;}
	.st251{fill:#873333;}
	.st252{fill:#722E2E;}
	.st253{fill:#B53F3F;}
	.st254{fill:#E09393;}
	.st255{fill:#C4B180;}
	.st256{fill:#B19F76;}
	.st257{fill:#F3DC90;}
	.st258{fill:#E3CC8B;}
	.st259{fill:#774F43;}
	.st260{fill:#624038;}
	.st261{fill:#90FF9A;}
	.st262{fill:#91D2CD;}
	.st263{fill:#B4F9F9;}
	.st264{fill:#BB8C4D;}
	.st265{fill:#DE6E88;}
	.st266{fill:#BA6381;}
	.st267{fill:#B25B77;}
	.st268{fill:#9DD6D3;}
	.st269{fill:#B95F7C;}
	.st270{fill:#F3D5DF;}
	.st271{fill:#B9D9D6;}
	.st272{fill:#A9C7C4;}
	.st273{fill:#71A7A7;}
	.st274{fill:#833232;}
	.st275{fill:#9B3A3A;}
	.st276{fill:#752F2F;}
	.st277{fill:#B53E3E;}
	.st278{fill:#B58E9D;}
	.st279{fill:#BB909F;}
	.st280{fill:#CD99A8;}
	.st281{fill:#F2D9E1;}
	.st282{fill:#9BD4D1;}
	.st283{fill:#B2F7F7;}
	.st284{fill:#F1DA8E;}
	.st285{fill:#F2E0AF;}
	.st286{fill:#F9F9FF;}
	.st287{fill:#CA8F80;}
	.st288{fill:#E2A18B;}
	.st289{fill:#E6B8AB;}
	.st290{fill:#D89988;}
	.st291{fill:#D7B26B;}
	.st292{fill:#8D8ACE;}
	.st293{fill:#9FD6D2;}
	.st294{fill:#B3F3F0;}
	.st295{fill:#C8FFFF;}
	.st296{fill:#F4DAA4;}
	.st297{fill:#BFBFBF;}
	.st298{fill:#D7A2B2;}
	.st299{fill:#D4D4D4;}
	.st300{fill:#EDD094;}
	.st301{fill:#BF8E9D;}
	.st302{fill:#AA8190;}
	.st303{fill:#D69EAE;}
	.st304{fill:#AD3D3D;}
	.st305{fill:#8986CE;}
	.st306{fill:#B24B6B;}
	.st307{fill:#EFCD88;}
	.st308{fill:#F4E9CC;}
	.st309{fill:#CFAA66;}
	.st310{fill:#F8E9C9;}
	.st311{fill:#3B386E;}
	.st312{fill:#AA3939;}
	.st313{fill:#67433B;}
	.st314{fill:#CF9AAA;}
	.st315{fill:#C46583;}
	.st316{fill:#9491D7;}
	.st317{fill:#8784C9;}
	.st318{fill:#FBFBFB;}
	.st319{fill:#D3BE80;}
	.st320{fill:none;stroke:#453D80;stroke-width:8;stroke-miterlimit:10;}
	.st321{fill:#C591A0;}
	.st322{fill:#F1D7DF;}
	.st323{fill:#AD7F8E;}
	.st324{fill:#D8C3CA;}
	.st325{fill:#DFA868;}
	.st326{fill:#C66684;}
	.st327{fill:#C7C7C7;}
	.st328{fill:#AA5F80;}
	.st329{fill:#A75770;}
	.st330{fill:#93506A;}
	.st331{fill:#D1AC66;}
	.st332{fill:#F4E0B8;}
	.st333{fill:#F4D7E1;}
	.st334{fill:#EECA80;}
	.st335{fill:#C0DFFB;}
	.st336{fill:#DC5E5E;}
	.st337{fill:#CD9942;}
	.st338{fill:#E1AA46;}
	.st339{fill:#F4D8A2;}
	.st340{fill:#27918E;}
	.st341{fill:#29A3A3;}
	.st342{fill:#91D9D9;}
	.st343{fill:#BFA94C;}
	.st344{fill:#D3BA53;}
	.st345{fill:#F0E182;}
	.st346{fill:#EDD458;}
	.st347{fill:#AB7E47;}
	.st348{fill:#886358;}
	.st349{fill:#E3B47A;}
	.st350{fill:#413D79;}
	.st351{fill:#B76180;}
	.st352{fill:none;stroke:#1C314E;stroke-width:8;stroke-linecap:round;stroke-miterlimit:10;}
	.st353{fill:#E08F8D;}
	.st354{fill:#CFA0B0;}
	.st355{fill:#DC809F;}
	.st356{fill:#CF5181;}
	.st357{fill:#6967BA;}
	.st358{fill:#BC537D;}
	.st359{fill:#C2DCF7;}
	.st360{fill:#B2CBE0;}
	.st361{fill:#A4BBC9;}
	.st362{fill:#9CB0BC;}
	.st363{fill:#99ACB7;}
	.st364{fill:#559562;}
	.st365{fill:#4D8556;}
	.st366{fill:#453D7F;}
	.st367{fill:#57529E;}
	.st368{fill:#B8863C;}
	.st369{fill:#DEA545;}
	.st370{fill:#C46682;}
	.st371{fill:#B1607F;}
	.st372{fill:#A15B7B;}
	.st373{fill:#75AAAA;}
	.st374{fill:#EBC4D5;}
	.st375{fill:#866358;}
	.st376{fill:#DE8D8B;}
	.st377{fill:#BA883C;}
	.st378{fill:#569762;}
	.st379{fill:#4E8756;}
	.st380{fill:#5752A0;}
	.st381{fill:#B36080;}
	.st382{fill:#EDC6D7;}
	.st383{fill:#D19AAA;}
	.st384{fill:#E7B5B5;}
	.st385{fill:#676795;}
	.st386{fill:#E3B469;}
	.st387{fill:#7673AD;}
</style>
<g id="BULINE">
	<circle id="XMLID_2366_" class="st2" cx="256" cy="256" r="256"/>
</g>
<g id="Icons">
	<g id="XMLID_3571_">
		<circle id="XMLID_3608_" class="st300" cx="255.6" cy="270.2" r="175"/>
		<path id="XMLID_3607_" class="st35" d="M225,131.4c-4.9-4.9-11.4-7.4-17.9-7.4s-13,2.5-17.9,7.4c-1.8,1.8-4.7,1.8-6.4,0
			c-4.9-4.9-11.4-7.4-17.9-7.4c-1.2,0-2.4,0.1-3.6,0.2c-5.2,0.7-10.3,3.1-14.3,7.2c-4.9,4.9-7.4,11.4-7.4,17.9
			c0,6.5,2.5,12.9,7.4,17.9l31.7,31.7c4,4,10.5,4,14.5,0l16-16l15.7-15.7C234.8,157.3,234.8,141.3,225,131.4z"/>
		<path id="XMLID_3606_" class="st35" d="M320.3,159.2c-2.8-2.8-6.5-4.2-10.3-4.2c-3.7,0-7.4,1.4-10.3,4.2c-1,1-2.7,1-3.7,0
			c-2.8-2.8-6.5-4.2-10.3-4.2c-0.7,0-1.4,0-2,0.1c-3,0.4-5.9,1.8-8.2,4.1c-2.8,2.8-4.2,6.5-4.2,10.3c0,3.7,1.4,7.4,4.2,10.3
			l18.2,18.2c2.3,2.3,6,2.3,8.3,0l9.2-9.2l9-9C326,174.1,326,164.9,320.3,159.2z"/>
		<path id="XMLID_3605_" class="st35" d="M346.9,92.9c-2.8-2.8-6.5-4.2-10.3-4.2s-7.4,1.4-10.3,4.2c-1,1-2.7,1-3.7,0
			c-2.8-2.8-6.5-4.2-10.3-4.2c-0.7,0-1.4,0-2,0.1c-3,0.4-5.9,1.8-8.2,4.1c-2.8,2.8-4.2,6.5-4.2,10.3c0,3.7,1.4,7.4,4.2,10.3
			l18.2,18.2c2.3,2.3,6,2.3,8.3,0l9.2-9.2l9-9C352.6,107.8,352.6,98.6,346.9,92.9z"/>
		<path id="XMLID_3604_" class="st35" d="M306.4,28.2c-5.3-5.3-12.2-7.9-19.1-7.9c-6.9,0-13.8,2.6-19.1,7.9c-1.9,1.9-5,1.9-6.9,0
			c-5.3-5.3-12.2-7.9-19.1-7.9c-1.3,0-2.5,0.1-3.8,0.3c-5.6,0.8-11,3.3-15.3,7.6c-5.3,5.3-7.9,12.2-7.9,19.1
			c0,6.9,2.6,13.8,7.9,19.1l33.9,33.9c4.3,4.3,11.2,4.3,15.5,0l17.1-17.1l16.8-16.8C316.9,55.8,316.9,38.7,306.4,28.2z"/>
		<g id="XMLID_3589_">
			<g id="XMLID_3599_">
				<path id="XMLID_3600_" class="st301" d="M78.2,255.1c-1,0-1.9,0-2.9,0.1c-32.6,1.5-58.6,28.5-58.6,61.4v4.5
					c0,32.9,26,59.9,58.6,61.4c1,0.1,1.9,0.1,2.9,0.1h27.4V255.1H78.2z M80.6,357.6h-2.4c-1,0-1.9,0-2.9-0.1
					c-18.8-1.5-33.6-17.2-33.6-36.4v-4.5c0-19.2,14.8-34.9,33.6-36.4c0.9-0.1,1.9-0.1,2.9-0.1h2.4V357.6z"/>
			</g>
			<g id="XMLID_3594_">
				<path id="XMLID_3595_" class="st302" d="M92.4,255.1c-5.9,0-11.7,0.8-17.1,2.4c-25.6,7.4-44.4,31.1-44.4,59.1v4.5
					c0,28,18.8,51.7,44.4,59.1c5.4,1.6,11.1,2.4,17.1,2.4h13.2V255.1H92.4z M94.8,357.6h-2.4c-4.1,0-8.1-0.7-11.8-2v2h-2.4
					c-1,0-1.9,0-2.9-0.1c-18.8-1.5-33.6-17.2-33.6-36.4v-4.5c0-19.2,14.8-34.9,33.6-36.4c0.9-0.1,1.9-0.1,2.9-0.1h2.4v2
					c3.7-1.3,7.7-2,11.8-2h2.4V357.6z"/>
			</g>
			<path id="XMLID_3593_" class="st6" d="M256.4,224.3v195.5c0,9.8-8,17.8-17.8,17.8H93.1c-9.8,0-17.8-8-17.8-17.8V224.3
				c0-4.8,3.9-8.7,8.7-8.7h163.6C252.5,215.6,256.4,219.5,256.4,224.3z"/>
			<path id="XMLID_3592_" class="st302" d="M236.4,437.6v0.9c0,8-6.5,14.4-14.4,14.4H107.6c-8,0-14.4-6.5-14.4-14.4v-0.9H236.4z"/>
			<path id="XMLID_3591_" class="st301" d="M236.4,437.6v0.9c0,8-6.5,14.4-14.4,14.4h-63.4c-8,0-14.4-6.5-14.4-14.4v-0.9H236.4z"/>
			<path id="XMLID_3590_" class="st303" d="M256.4,419.8c0,9.8-8,17.8-17.8,17.8H93.1c-9.8,0-17.8-8-17.8-17.8V224.3
				c0-4.8,3.9-8.7,8.7-8.7C84.1,215.6,140.4,407.6,256.4,419.8z"/>
		</g>
		<path id="XMLID_3588_" class="st304" d="M256.4,270.2v122.7c-4.7,0-9.3-1.8-12.9-5.3l-56.3-56.3c-8.8-8.8-13.1-20.2-13.1-31.7
			c0-11.5,4.4-23,13.1-31.7c7.1-7.2,16.1-11.4,25.4-12.7c2.1-0.3,4.2-0.4,6.3-0.4c11.5,0,23,4.4,31.7,13.1
			C252.2,269.4,254.3,270.2,256.4,270.2z"/>
		<g id="XMLID_3573_">
			<g id="XMLID_3583_">
				<path id="XMLID_3584_" class="st301" d="M406.4,255.1v127.5h27.4c1,0,1.9,0,2.9-0.1c32.6-1.5,58.6-28.5,58.6-61.4v-4.5
					c0-32.9-26-59.9-58.6-61.4c-1,0-1.9-0.1-2.9-0.1H406.4z M431.4,280.1h2.4c1,0,1.9,0,2.9,0.1c18.8,1.5,33.6,17.2,33.6,36.4v4.5
					c0,19.2-14.8,34.9-33.6,36.4c-0.9,0.1-1.9,0.1-2.9,0.1h-2.4V280.1z"/>
			</g>
			<g id="XMLID_3578_">
				<path id="XMLID_3579_" class="st302" d="M406.4,255.1v127.5h13.2c5.9,0,11.7-0.8,17.1-2.4c25.6-7.4,44.4-31.1,44.4-59.1v-4.5
					c0-28-18.8-51.7-44.4-59.1c-5.4-1.6-11.1-2.4-17.1-2.4H406.4z M417.2,280.1h2.4c4.1,0,8.1,0.7,11.8,2v-2h2.4c1,0,1.9,0,2.9,0.1
					c18.8,1.5,33.6,17.2,33.6,36.4v4.5c0,19.2-14.8,34.9-33.6,36.4c-0.9,0.1-1.9,0.1-2.9,0.1h-2.4v-2c-3.7,1.3-7.7,2-11.8,2h-2.4
					V280.1z"/>
			</g>
			<path id="XMLID_3577_" class="st6" d="M255.6,224.3l0,195.5c0,9.8,8,17.8,17.8,17.8h145.5c9.8,0,17.8-8,17.8-17.8V224.3
				c0-4.8-3.9-8.7-8.7-8.7l-163.6,0C259.5,215.6,255.6,219.5,255.6,224.3z"/>
			<path id="XMLID_3576_" class="st302" d="M275.6,437.6v0.9c0,8,6.5,14.4,14.4,14.4h114.4c8,0,14.4-6.5,14.4-14.4v-0.9H275.6z"/>
			<path id="XMLID_3575_" class="st301" d="M275.6,437.6v0.9c0,8,6.5,14.4,14.4,14.4h63.4c8,0,14.4-6.5,14.4-14.4v-0.9H275.6z"/>
			<path id="XMLID_3574_" class="st303" d="M255.6,419.8c0,9.8,8,17.8,17.8,17.8h145.5c9.8,0,17.8-8,17.8-17.8V224.3
				c0-4.8-3.9-8.7-8.7-8.7C427.9,215.6,371.6,407.6,255.6,419.8z"/>
		</g>
		<path id="XMLID_3572_" class="st35" d="M255.6,270.2l0,122.7c4.7,0,9.3-1.8,12.9-5.3l56.3-56.3c8.8-8.8,13.1-20.2,13.1-31.7
			c0-11.5-4.4-23-13.1-31.7c-7.1-7.2-16.1-11.4-25.4-12.7c-2.1-0.3-4.2-0.4-6.3-0.4c-11.5,0-23,4.4-31.7,13.1
			C259.8,269.4,257.7,270.2,255.6,270.2z"/>
	</g>
	<g>
	</g>
</g>
</svg>
